<mxfile host="Electron" modified="2024-03-01T07:21:37.526Z" agent="Mozilla/5.0 (Macintosh; Intel Mac OS X 10_15_7) AppleWebKit/537.36 (KHTML, like Gecko) draw.io/23.0.2 Chrome/120.0.6099.109 Electron/28.1.0 Safari/537.36" etag="maUjftFAWIWHvwFyu-I5" version="23.0.2" type="device">
  <diagram id="zb2WUUYpe_FgwtSp3l4U" name="Architektur">
    <mxGraphModel dx="2603" dy="1672" grid="1" gridSize="10" guides="1" tooltips="1" connect="1" arrows="1" fold="1" page="1" pageScale="1" pageWidth="1169" pageHeight="827" math="0" shadow="0">
      <root>
        <mxCell id="0" />
        <mxCell id="1" parent="0" />
        <mxCell id="kk_FyZ1aEBaNAiJHPIk6-1" value="" style="rounded=1;whiteSpace=wrap;html=1;fontSize=16;" parent="1" vertex="1">
          <mxGeometry x="-1160" y="-770" width="190" height="340" as="geometry" />
        </mxCell>
        <mxCell id="kk_FyZ1aEBaNAiJHPIk6-2" value="Jobe Server" style="rounded=0;whiteSpace=wrap;html=1;fontSize=16;" parent="1" vertex="1">
          <mxGeometry x="-1130" y="-730" width="120" height="40" as="geometry" />
        </mxCell>
        <mxCell id="kk_FyZ1aEBaNAiJHPIk6-3" value="DKE Moodle&lt;font style=&quot;font-size: 10px;&quot;&gt;&lt;br&gt;eTutorPlugin&lt;br&gt;CodeRunner&lt;/font&gt;" style="rounded=0;whiteSpace=wrap;html=1;fontSize=16;" parent="1" vertex="1">
          <mxGeometry x="-1130" y="-640" width="120" height="60" as="geometry" />
        </mxCell>
        <mxCell id="kk_FyZ1aEBaNAiJHPIk6-4" value="MySQL" style="shape=cylinder3;whiteSpace=wrap;html=1;boundedLbl=1;backgroundOutline=1;size=15;fontSize=16;" parent="1" vertex="1">
          <mxGeometry x="-1130" y="-530" width="120" height="70" as="geometry" />
        </mxCell>
        <mxCell id="kk_FyZ1aEBaNAiJHPIk6-8" value="" style="endArrow=none;dashed=1;html=1;rounded=0;fontSize=12;startSize=8;endSize=8;curved=1;entryX=0.5;entryY=1;entryDx=0;entryDy=0;exitX=0.5;exitY=0;exitDx=0;exitDy=0;exitPerimeter=0;" parent="1" source="kk_FyZ1aEBaNAiJHPIk6-4" target="kk_FyZ1aEBaNAiJHPIk6-3" edge="1">
          <mxGeometry width="50" height="50" relative="1" as="geometry">
            <mxPoint x="-880" y="-530" as="sourcePoint" />
            <mxPoint x="-830" y="-580" as="targetPoint" />
          </mxGeometry>
        </mxCell>
        <mxCell id="kk_FyZ1aEBaNAiJHPIk6-9" value="" style="endArrow=classic;html=1;rounded=0;fontSize=12;startSize=8;endSize=8;curved=1;exitX=0.5;exitY=0;exitDx=0;exitDy=0;entryX=0.5;entryY=1;entryDx=0;entryDy=0;" parent="1" source="kk_FyZ1aEBaNAiJHPIk6-3" target="kk_FyZ1aEBaNAiJHPIk6-2" edge="1">
          <mxGeometry width="50" height="50" relative="1" as="geometry">
            <mxPoint x="-910" y="-650" as="sourcePoint" />
            <mxPoint x="-860" y="-700" as="targetPoint" />
          </mxGeometry>
        </mxCell>
        <mxCell id="kk_FyZ1aEBaNAiJHPIk6-10" value="Moodle" style="text;html=1;strokeColor=none;fillColor=none;align=center;verticalAlign=middle;whiteSpace=wrap;rounded=0;fontSize=16;fontStyle=2" parent="1" vertex="1">
          <mxGeometry x="-1130" y="-770" width="60" height="30" as="geometry" />
        </mxCell>
        <mxCell id="kk_FyZ1aEBaNAiJHPIk6-11" value="" style="rounded=1;whiteSpace=wrap;html=1;fontSize=16;" parent="1" vertex="1">
          <mxGeometry x="-920" y="-770" width="680" height="340" as="geometry" />
        </mxCell>
        <mxCell id="kk_FyZ1aEBaNAiJHPIk6-12" value="eTutor" style="text;html=1;strokeColor=none;fillColor=none;align=center;verticalAlign=middle;whiteSpace=wrap;rounded=0;fontSize=16;fontStyle=2" parent="1" vertex="1">
          <mxGeometry x="-870" y="-770" width="60" height="30" as="geometry" />
        </mxCell>
        <mxCell id="kk_FyZ1aEBaNAiJHPIk6-13" value="Task Administration" style="rounded=0;whiteSpace=wrap;html=1;fontSize=16;" parent="1" vertex="1">
          <mxGeometry x="-850" y="-630" width="120" height="40" as="geometry" />
        </mxCell>
        <mxCell id="kk_FyZ1aEBaNAiJHPIk6-14" value="Task Admini-stration UI" style="rounded=0;whiteSpace=wrap;html=1;fontSize=16;" parent="1" vertex="1">
          <mxGeometry x="-850" y="-730" width="120" height="40" as="geometry" />
        </mxCell>
        <mxCell id="kk_FyZ1aEBaNAiJHPIk6-15" value="PostgreSQL" style="shape=cylinder3;whiteSpace=wrap;html=1;boundedLbl=1;backgroundOutline=1;size=15;fontSize=16;" parent="1" vertex="1">
          <mxGeometry x="-850" y="-530" width="120" height="70" as="geometry" />
        </mxCell>
        <mxCell id="kk_FyZ1aEBaNAiJHPIk6-16" value="" style="endArrow=none;dashed=1;html=1;rounded=0;fontSize=12;startSize=8;endSize=8;curved=1;exitX=0.5;exitY=0;exitDx=0;exitDy=0;exitPerimeter=0;entryX=0.5;entryY=1;entryDx=0;entryDy=0;" parent="1" source="kk_FyZ1aEBaNAiJHPIk6-15" target="kk_FyZ1aEBaNAiJHPIk6-13" edge="1">
          <mxGeometry width="50" height="50" relative="1" as="geometry">
            <mxPoint x="-750" y="-550" as="sourcePoint" />
            <mxPoint x="-700" y="-600" as="targetPoint" />
          </mxGeometry>
        </mxCell>
        <mxCell id="kk_FyZ1aEBaNAiJHPIk6-17" value="" style="endArrow=classic;html=1;rounded=0;fontSize=12;startSize=8;endSize=8;curved=1;entryX=0.5;entryY=0;entryDx=0;entryDy=0;exitX=0.5;exitY=1;exitDx=0;exitDy=0;" parent="1" source="kk_FyZ1aEBaNAiJHPIk6-14" target="kk_FyZ1aEBaNAiJHPIk6-13" edge="1">
          <mxGeometry width="50" height="50" relative="1" as="geometry">
            <mxPoint x="-910" y="-900" as="sourcePoint" />
            <mxPoint x="-730" y="-930" as="targetPoint" />
          </mxGeometry>
        </mxCell>
        <mxCell id="kk_FyZ1aEBaNAiJHPIk6-18" value="Task-Synchronisation" style="endArrow=classic;html=1;rounded=0;fontSize=12;startSize=8;endSize=8;curved=1;entryX=1;entryY=0.5;entryDx=0;entryDy=0;exitX=0;exitY=0.5;exitDx=0;exitDy=0;" parent="1" source="kk_FyZ1aEBaNAiJHPIk6-13" target="kk_FyZ1aEBaNAiJHPIk6-3" edge="1">
          <mxGeometry y="20" width="50" height="50" relative="1" as="geometry">
            <mxPoint x="-640" y="-630" as="sourcePoint" />
            <mxPoint x="-590" y="-680" as="targetPoint" />
            <mxPoint as="offset" />
          </mxGeometry>
        </mxCell>
        <mxCell id="hVstzdfKfESB4BXa7sy1-2" value="Task-Service&lt;br&gt;SQL/RA" style="rounded=0;whiteSpace=wrap;html=1;fontSize=16;" parent="1" vertex="1">
          <mxGeometry x="-590" y="-730" width="120" height="40" as="geometry" />
        </mxCell>
        <mxCell id="hVstzdfKfESB4BXa7sy1-3" value="Task-Service&lt;br&gt;UML" style="rounded=0;whiteSpace=wrap;html=1;fontSize=16;" parent="1" vertex="1">
          <mxGeometry x="-590" y="-630" width="120" height="40" as="geometry" />
        </mxCell>
        <mxCell id="hVstzdfKfESB4BXa7sy1-4" value="Task-Service&lt;br&gt;..." style="rounded=0;whiteSpace=wrap;html=1;fontSize=16;" parent="1" vertex="1">
          <mxGeometry x="-590" y="-530" width="120" height="40" as="geometry" />
        </mxCell>
        <mxCell id="CscHMaOkjbDijChIwFaw-3" value="" style="endArrow=classic;html=1;rounded=0;fontSize=12;startSize=8;endSize=8;curved=1;entryX=0;entryY=0.5;entryDx=0;entryDy=0;exitX=1;exitY=0.5;exitDx=0;exitDy=0;" parent="1" source="kk_FyZ1aEBaNAiJHPIk6-13" target="hVstzdfKfESB4BXa7sy1-2" edge="1">
          <mxGeometry width="50" height="50" relative="1" as="geometry">
            <mxPoint x="-540" y="-330" as="sourcePoint" />
            <mxPoint x="-490" y="-380" as="targetPoint" />
          </mxGeometry>
        </mxCell>
        <mxCell id="CscHMaOkjbDijChIwFaw-4" value="CRUD via&lt;br&gt;RESTful-API" style="endArrow=classic;html=1;rounded=0;fontSize=12;startSize=8;endSize=8;curved=1;entryX=0;entryY=0.5;entryDx=0;entryDy=0;exitX=1;exitY=0.5;exitDx=0;exitDy=0;" parent="1" source="kk_FyZ1aEBaNAiJHPIk6-13" target="hVstzdfKfESB4BXa7sy1-3" edge="1">
          <mxGeometry x="0.2857" y="20" width="50" height="50" relative="1" as="geometry">
            <mxPoint x="-720" y="-600" as="sourcePoint" />
            <mxPoint x="-580" y="-700" as="targetPoint" />
            <mxPoint as="offset" />
          </mxGeometry>
        </mxCell>
        <mxCell id="CscHMaOkjbDijChIwFaw-5" value="" style="endArrow=classic;html=1;rounded=0;fontSize=12;startSize=8;endSize=8;curved=1;entryX=0;entryY=0.5;entryDx=0;entryDy=0;exitX=1;exitY=0.5;exitDx=0;exitDy=0;" parent="1" source="kk_FyZ1aEBaNAiJHPIk6-13" target="hVstzdfKfESB4BXa7sy1-4" edge="1">
          <mxGeometry width="50" height="50" relative="1" as="geometry">
            <mxPoint x="-720" y="-600" as="sourcePoint" />
            <mxPoint x="-580" y="-600" as="targetPoint" />
          </mxGeometry>
        </mxCell>
        <mxCell id="So8_WkpzyjYoSkj30nUn-3" value="" style="shape=cylinder3;whiteSpace=wrap;html=1;boundedLbl=1;backgroundOutline=1;size=15;fontSize=16;" parent="1" vertex="1">
          <mxGeometry x="-390" y="-737.5" width="120" height="55" as="geometry" />
        </mxCell>
        <mxCell id="So8_WkpzyjYoSkj30nUn-4" value="" style="shape=cylinder3;whiteSpace=wrap;html=1;boundedLbl=1;backgroundOutline=1;size=15;fontSize=16;" parent="1" vertex="1">
          <mxGeometry x="-390" y="-637.5" width="120" height="55" as="geometry" />
        </mxCell>
        <mxCell id="So8_WkpzyjYoSkj30nUn-5" value="" style="shape=cylinder3;whiteSpace=wrap;html=1;boundedLbl=1;backgroundOutline=1;size=15;fontSize=16;" parent="1" vertex="1">
          <mxGeometry x="-390" y="-537.5" width="120" height="55" as="geometry" />
        </mxCell>
        <mxCell id="So8_WkpzyjYoSkj30nUn-6" value="" style="endArrow=none;dashed=1;html=1;rounded=0;fontSize=12;startSize=8;endSize=8;curved=1;exitX=1;exitY=0.5;exitDx=0;exitDy=0;entryX=0;entryY=0.5;entryDx=0;entryDy=0;entryPerimeter=0;" parent="1" source="hVstzdfKfESB4BXa7sy1-2" target="So8_WkpzyjYoSkj30nUn-3" edge="1">
          <mxGeometry width="50" height="50" relative="1" as="geometry">
            <mxPoint x="-130" y="-640" as="sourcePoint" />
            <mxPoint x="-80" y="-690" as="targetPoint" />
          </mxGeometry>
        </mxCell>
        <mxCell id="So8_WkpzyjYoSkj30nUn-7" value="" style="endArrow=none;dashed=1;html=1;rounded=0;fontSize=12;startSize=8;endSize=8;curved=1;exitX=1;exitY=0.5;exitDx=0;exitDy=0;entryX=0;entryY=0.5;entryDx=0;entryDy=0;entryPerimeter=0;" parent="1" source="hVstzdfKfESB4BXa7sy1-3" target="So8_WkpzyjYoSkj30nUn-4" edge="1">
          <mxGeometry width="50" height="50" relative="1" as="geometry">
            <mxPoint x="-460" y="-700" as="sourcePoint" />
            <mxPoint x="-360" y="-700" as="targetPoint" />
          </mxGeometry>
        </mxCell>
        <mxCell id="So8_WkpzyjYoSkj30nUn-8" value="" style="endArrow=none;dashed=1;html=1;rounded=0;fontSize=12;startSize=8;endSize=8;curved=1;exitX=1;exitY=0.5;exitDx=0;exitDy=0;entryX=0;entryY=0.5;entryDx=0;entryDy=0;entryPerimeter=0;" parent="1" source="hVstzdfKfESB4BXa7sy1-4" target="So8_WkpzyjYoSkj30nUn-5" edge="1">
          <mxGeometry width="50" height="50" relative="1" as="geometry">
            <mxPoint x="-460" y="-600" as="sourcePoint" />
            <mxPoint x="-360" y="-600" as="targetPoint" />
          </mxGeometry>
        </mxCell>
        <mxCell id="0ViFj-EDOrEs0AZ6PtdF-2" value="" style="endArrow=classic;html=1;rounded=0;fontSize=12;startSize=8;endSize=8;exitX=0.25;exitY=0;exitDx=0;exitDy=0;entryX=0.75;entryY=0;entryDx=0;entryDy=0;" parent="1" source="kk_FyZ1aEBaNAiJHPIk6-2" target="hVstzdfKfESB4BXa7sy1-2" edge="1">
          <mxGeometry width="50" height="50" relative="1" as="geometry">
            <mxPoint x="-990" y="-770" as="sourcePoint" />
            <mxPoint x="-940" y="-820" as="targetPoint" />
            <Array as="points">
              <mxPoint x="-1100" y="-810" />
              <mxPoint x="-500" y="-810" />
            </Array>
          </mxGeometry>
        </mxCell>
        <mxCell id="0ViFj-EDOrEs0AZ6PtdF-3" value="" style="endArrow=classic;html=1;rounded=0;fontSize=12;startSize=8;endSize=8;exitX=0.5;exitY=0;exitDx=0;exitDy=0;entryX=0.5;entryY=0;entryDx=0;entryDy=0;" parent="1" source="kk_FyZ1aEBaNAiJHPIk6-2" target="hVstzdfKfESB4BXa7sy1-3" edge="1">
          <mxGeometry width="50" height="50" relative="1" as="geometry">
            <mxPoint x="-1090" y="-720" as="sourcePoint" />
            <mxPoint x="-490" y="-720" as="targetPoint" />
            <Array as="points">
              <mxPoint x="-1070" y="-800" />
              <mxPoint x="-530" y="-800" />
            </Array>
          </mxGeometry>
        </mxCell>
        <mxCell id="0ViFj-EDOrEs0AZ6PtdF-4" value="Run, Diagnose, Submit via RESTful-API" style="endArrow=classic;html=1;rounded=0;fontSize=12;startSize=8;endSize=8;exitX=0.75;exitY=0;exitDx=0;exitDy=0;entryX=0.25;entryY=0;entryDx=0;entryDy=0;" parent="1" source="kk_FyZ1aEBaNAiJHPIk6-2" target="hVstzdfKfESB4BXa7sy1-4" edge="1">
          <mxGeometry x="-0.325" y="30" width="50" height="50" relative="1" as="geometry">
            <mxPoint x="-1060" y="-720" as="sourcePoint" />
            <mxPoint x="-520" y="-620" as="targetPoint" />
            <Array as="points">
              <mxPoint x="-1040" y="-790" />
              <mxPoint x="-560" y="-790" />
            </Array>
            <mxPoint as="offset" />
          </mxGeometry>
        </mxCell>
      </root>
    </mxGraphModel>
  </diagram>
</mxfile>
